<?xml version="1.0" encoding="utf-8"?>
<!-- Generator: Adobe Illustrator 14.0.0, SVG Export Plug-In . SVG Version: 6.00 Build 43363)  -->
<!DOCTYPE svg PUBLIC "-//W3C//DTD SVG 1.1//EN" "http://www.w3.org/Graphics/SVG/1.1/DTD/svg11.dtd">
<svg version="1.1" id="Layer_1" xmlns="http://www.w3.org/2000/svg" xmlns:xlink="http://www.w3.org/1999/xlink" x="0px" y="0px"
	 width="612px" height="792px" viewBox="0 0 612 792" enable-background="new 0 0 612 792" xml:space="preserve">
<g>
	<polygon fill-rule="evenodd" clip-rule="evenodd" fill="#FFFFFF" points="209,300 401.756,300 401.756,492.756 209,492.756 
		209,300 	"/>
	<path fill-rule="evenodd" clip-rule="evenodd" d="M305.787,331.983c-8.82,0-17.232,1.714-25.317,5.063
		c-7.84,3.267-14.7,7.922-20.662,13.884c-5.962,5.88-10.617,12.74-14.047,20.417c-3.348,7.922-5.063,16.333-5.063,25.072v0.815
		h-23.193v46.225h43.855c12.659,11.516,27.44,17.314,44.428,17.314c17.068,0,31.85-5.799,44.508-17.314h42.957v-46.225h-22.295
		v-0.815c0-8.739-1.716-17.15-5.146-25.072c-3.267-7.677-7.922-14.537-13.883-20.417c-6.044-5.962-12.985-10.617-20.744-13.884
		C323.1,333.698,314.606,331.983,305.787,331.983L305.787,331.983z"/>
	<path fill-rule="evenodd" clip-rule="evenodd" fill="#FCE53A" d="M305.787,333.126c-8.657,0-16.906,1.633-24.909,4.982
		c-7.595,3.185-14.292,7.676-20.254,13.556c-5.961,5.799-10.535,12.496-13.72,20.09c-3.349,7.758-4.982,16.007-4.982,24.664
		l0.082,2.042h-23.275v43.773h43.12c12.332,11.516,26.95,17.395,43.938,17.395c17.068,0,31.768-5.879,44.018-17.395h42.223v-43.773
		h-22.296v-2.042c0-8.657-1.633-16.906-4.981-24.664c-3.267-7.595-7.84-14.292-13.721-20.09c-5.88-5.88-12.576-10.371-20.335-13.556
		C322.854,334.76,314.524,333.126,305.787,333.126L305.787,333.126L305.787,333.126z M282.185,340.967
		c7.513-3.186,15.435-4.655,23.602-4.655c16.823,0,31.196,5.88,43.039,17.64c11.842,11.679,17.804,25.888,17.804,42.467
		c0,8.085-1.552,15.843-4.737,23.356c-3.186,7.188-7.513,13.475-13.066,19.029c-11.843,11.76-26.216,17.639-43.039,17.639
		c-8.167,0-16.089-1.551-23.602-4.736c-7.269-3.104-13.639-7.35-19.273-12.902c-5.635-5.555-9.963-11.842-13.067-19.029
		c-3.267-7.514-4.737-15.271-4.737-23.356c0-16.579,5.962-30.789,17.804-42.467C268.546,348.317,274.916,344.07,282.185,340.967
		L282.185,340.967z"/>
	<path fill-rule="evenodd" clip-rule="evenodd" fill="#D6504D" d="M363.524,396.419c0-15.844-5.635-29.237-16.904-40.425
		c-11.271-11.025-24.827-16.661-40.833-16.661c-15.925,0-29.482,5.635-40.752,16.661c-11.27,11.188-16.905,24.582-16.905,40.425
		c0,15.679,5.635,29.155,16.905,40.343c11.271,11.107,24.827,16.66,40.752,16.66c16.006,0,29.563-5.553,40.833-16.66
		C357.89,425.574,363.524,412.098,363.524,396.419L363.524,396.419z"/>
	<path fill-rule="evenodd" clip-rule="evenodd" d="M314.116,440.928l-1.389,1.879l-0.571,1.389l-0.735,1.061l-1.225-0.408
		l-0.816,0.082l-0.082,0.162c-0.163-0.49,0-0.816,0.408-1.225l-0.816,0.49c-0.898,0.98-1.388,1.063-1.47,0.326l-2.042,0.49
		l0.163-0.734l0.327-0.654l-1.307,0.816l0.571-1.715c0.164-0.57,0.49-0.979,1.062-1.225c-0.408-0.164-0.817,0-1.307,0.572
		l-1.143,1.307l-0.245-2.613l-0.409,0.326l-0.163,0.572l-0.654,0.49l-0.49,0.979l-0.572,0.572c-0.653-1.307-1.307-2.123-1.878-2.613
		v1.063l0.489,0.734l0.327,1.145l0.245,1.225l-0.327-0.164l-1.551-0.734l-0.49-0.572l-0.572-0.408l0.572-0.49
		c-0.082-0.164-0.408-0.244-1.143-0.244l-1.225-0.164l-0.164-0.734l-0.898,0.49l-0.326,0.488l-0.245-0.244
		c-0.327-0.082-0.49,0-0.572,0.244l-0.164,0.818l-0.816-0.41l-0.735-0.652l0.735-0.244l-0.98-0.328c-0.49,0-0.898,0.164-1.389,0.572
		c-0.082-0.49,0.164-1.063,0.654-1.879c-0.654-0.244-1.307-0.162-1.715,0.408l0.082-0.57c-0.572-0.082-1.144,0.326-1.552,1.307
		l-0.408-1.389c-0.49,0.408-0.571,0.816-0.49,1.469l-2.042,0.328c0.163,0,0.571,0.244,1.225,0.652
		c-0.572-0.082-0.898,0.326-1.062,0.898l0.164,1.063c-0.082-0.572,0.082-0.898,0.49-1.063c0.49-0.162,0.817-0.082,1.225,0.246
		l-0.408,1.225l0.245-0.246c0.408,0.408,0.49,0.736,0.245,1.063l-0.735-0.246c-1.144-0.979-1.797-1.143-1.96-0.488
		c-0.164-0.818-0.572-1.145-1.225-1.063s-1.144,0.408-1.552,1.063c0-1.307,0.49-2.451,1.47-3.35l-1.715,1.063l-0.816,1.469
		l-0.409-0.734l-0.735-0.734l-0.327,1.551l-0.408-0.326h-0.408v1.063c0,0.652-0.082,1.061-0.246,1.143l-1.306,0.244l-0.164,0.328
		l1.144,1.143l3.512,1.551l4.655,1.389l2.124,0.98l3.185,1.063l5.635,1.225l4.818-0.082c0.49,0,1.225,0.244,2.368,0.816
		c1.062,0.572,1.797,0.816,2.287,0.654l9.8-1.063l6.859-1.551c0.572-0.082,1.307-0.408,2.287-1.063
		c0.98-0.572,1.634-0.98,2.286-1.061l2.45-0.082l1.634-0.654c0.327,0,0.408-0.244,0.49-0.652c0-0.408,0.081-0.572,0.326-0.572
		l0.816,0.082c0.735-0.164,0.654-0.736-0.408-1.471l-0.653-0.408v-0.734l1.797-1.879l-1.552,0.572c-0.571,0.408-0.898,0.408-0.816,0
		l-0.327,0.082l-0.326,0.734l-0.164-0.49l-0.571,0.408l-0.245-0.898l-0.326,0.082l-0.408,1.959
		c-0.082,0.654-0.245,0.898-0.653,0.654l-0.408-0.572l-0.082-0.816l-0.816,0.082l-0.164,1.143c-0.326,0.408-0.571,0.572-0.979,0.49
		l-0.408-0.49l-0.245-0.734l1.144-1.551h-0.98l-1.062,0.162c0-0.408-0.082-0.652-0.327-0.734l2.45-0.164l0.408,0.164l-1.225-0.734
		l-0.979-0.328l-1.879,0.49c0-0.652,0.653-1.143,1.96-1.225l-0.735-0.652l-1.225-0.654c-0.816-0.246-1.226,0.164-1.307,1.143
		c-0.327-0.244-0.735-0.162-0.98,0.49l-0.653,1.145c0.082,0,0.49,0.326,1.307,0.979l-0.979,0.49l-0.49,1.225l0.816-0.816
		c0.49,0,0.653,0.246,0.49,0.736c-0.326,0.57-0.571,0.896-0.979,0.896l-1.471-1.061l-0.571-0.652
		c-0.163-0.246,0.081-0.49,0.49-0.654l0.979,0.082v-0.49l-0.653-0.816c-0.163-0.326-0.408-0.408-0.653-0.326
		c0.245-0.408,0.49-0.572,0.735-0.654l-1.96-0.164c0.245-0.816,0.49-1.225,0.898-1.143c-1.144-0.244-1.96-0.164-2.287,0.408
		c0-0.734,0.163-1.225,0.571-1.471c-0.408-0.244-1.062,0.164-1.959,1.227L314.116,440.928L314.116,440.928L314.116,440.928z
		 M306.195,446.398h-0.164l-0.653,0.082c0-0.49,0.163-0.652,0.572-0.49L306.195,446.398L306.195,446.398L306.195,446.398z
		 M305.623,447.215c0.327-0.244,0.653-0.08,0.734,0.49C305.133,448.113,304.888,447.951,305.623,447.215L305.623,447.215
		L305.623,447.215z M302.846,448.441l-0.082-0.328l1.225,0.164L302.846,448.441L302.846,448.441L302.846,448.441z M302.928,446.236
		l1.062,0.326c0.408,0.408,0.408,0.652-0.082,0.816l-0.653-0.244C302.765,446.807,302.683,446.563,302.928,446.236L302.928,446.236
		L302.928,446.236z M313.953,443.705c0.244,0.408,0.326,0.652,0.082,0.896c-0.408,0.082-0.735,0-0.817-0.406L313.953,443.705
		L313.953,443.705L313.953,443.705z M313.871,447.787c0.082,0.244,0.164,0.49,0.082,0.816l-0.408-0.082h-0.653
		c-0.164-0.244-0.164-0.408,0.081-0.49l0.654-0.244H313.871L313.871,447.787L313.871,447.787z M315.668,447.787l-0.571-0.082
		c-0.409-0.57,0-0.652,0.979-0.326l-0.082,0.408l0.654,0.082h0.571c0.327,0.082,0.408,0.49,0.245,1.307h-0.245v-0.164l-0.326-0.244
		l0.081,0.164l-0.326-0.164l-0.409-0.49L315.668,447.787L315.668,447.787L315.668,447.787z M316.894,446.563h0.081l-0.081,0.164
		V446.563l-0.327,0.082c-0.653-0.408-0.653-0.654-0.163-0.816C316.729,445.746,316.894,445.99,316.894,446.563L316.894,446.563
		L316.894,446.563z M310.85,445.908l0.408-0.162v0.898l0.163,0.652l-0.326-0.082l-0.326-0.57L310.85,445.908L310.85,445.908
		L310.85,445.908z M313.708,446.807c-0.571-0.08-0.898-0.244-0.98-0.488l0.409-0.898l0.979,0.652
		C314.279,446.318,314.116,446.563,313.708,446.807L313.708,446.807L313.708,446.807z M313.463,449.34v0.57l-0.98,0.082l0.164-0.572
		L313.463,449.34L313.463,449.34L313.463,449.34z M314.77,449.258l0.327-0.326l0.326-0.41c0.327,0.246,0.408,0.572,0.163,0.98
		l-0.571,0.326l-0.408-0.244L314.77,449.258L314.77,449.258L314.77,449.258z M291.576,445.828h0.245l0.408-0.164l-0.164,0.816
		l-0.735,0.246c-0.082,0.57,0.164,0.734,0.572,0.57l0.409-0.49l0.49-0.244c0.408,0,0.489,0.408,0.244,0.98l0.49-0.082
		c0.082,0.652,0,1.061-0.245,1.307l-0.898-0.98l-1.062,0.408c-0.326-0.082-0.326-0.326-0.082-0.734l-1.552-0.408v0.652h-1.47
		l-0.246-0.408l-0.163-0.57l0.571-0.898c0,0.57,0.246,0.816,0.572,0.734c0.572,0.408,0.735,0,0.572-1.063l0.98-0.652l0.408,1.225
		l-0.163-0.164l-0.49,0.246l0.898,0.082l0.327-0.082L291.576,445.828L291.576,445.828L291.576,445.828z M291.903,444.766
		c-0.98,0.082-1.143-0.244-0.572-0.816l0.653-0.164l0.409,0.572v0.734l-0.246-0.408h-0.082L291.903,444.766L291.903,444.766
		L291.903,444.766z M289.208,444.602l-0.327,0.736c-0.245-0.246-0.571-0.49-0.816-0.408l0.245-0.98l0.898-0.244V444.602
		L289.208,444.602L289.208,444.602z M285.124,448.359l0.082-0.246l0.572-0.49l0.163-0.326h0.327l0.163,0.572h0.408l-0.98,1.143
		l-0.082-0.244L285.124,448.359L285.124,448.359L285.124,448.359z M284.716,447.461l-0.817,0.898l-0.081-0.816
		c0.081-0.164,0.408-0.246,0.735-0.246l-0.164-0.082C284.553,447.215,284.635,447.297,284.716,447.461L284.716,447.461
		L284.716,447.461z M283.491,445.99c0.245,0.082,0.408,0.246,0.327,0.408c-0.082,0.654-0.409,0.736-0.898,0.328l-0.327-1.063
		L283.491,445.99L283.491,445.99L283.491,445.99z M296.966,445.092v-0.816l0.49-0.08l-0.082,0.08
		C297.62,444.766,297.538,445.092,296.966,445.092L296.966,445.092L296.966,445.092z M296.885,447.215v-0.652h0.735
		c0,0.572-0.082,0.816-0.245,0.898l0.082-0.082L296.885,447.215L296.885,447.215L296.885,447.215z M298.11,446.318l-0.49-0.164
		v-0.408l0.898-0.164l0.327,0.736l-0.408,0.408L298.11,446.318L298.11,446.318L298.11,446.318z M299.661,447.787
		c-0.245,0.082-0.326-0.082-0.245-0.49l0.245-0.898c0.735,0,0.98,0.328,0.735,0.98l-0.245,0.408l-0.408-0.082l-0.245-0.082
		L299.661,447.787L299.661,447.787L299.661,447.787z M295.333,445.582l0.082-0.734c0.49-0.652,0.735-0.652,0.735,0l0.082-0.164
		l0.082,0.49l-0.082,0.408H295.333L295.333,445.582L295.333,445.582z M295.251,447.869c0.081,0.162,0.163,0.408,0.081,0.652
		l-0.898,0.41l-0.327-0.736L295.251,447.869L295.251,447.869L295.251,447.869z M295.66,447.543l-0.082-0.816l0.571,0.08
		C296.395,447.297,296.313,447.543,295.66,447.543L295.66,447.543L295.66,447.543z M281.694,447.705l-0.653-1.143l0.98-0.082
		C282.593,446.971,282.429,447.379,281.694,447.705L281.694,447.705L281.694,447.705z M322.12,443.133l0.408-0.326l0.163,0.244
		v0.082l-0.082-0.082L322.12,443.133L322.12,443.133L322.12,443.133z M322.691,445.908c0.245,0.49,0.245,0.818,0,1.145
		c-0.408,0.162-0.735,0-0.653-0.49L322.691,445.908L322.691,445.908z"/>
	<path fill-rule="evenodd" clip-rule="evenodd" d="M317.465,343.662c-0.571-0.082-1.471,0.245-2.777,0.98l-1.225,0.326l-1.389,0.082
		l-2.368,1.225l-2.613,0.327c-0.408,0-0.898,0.245-1.633,0.817l-1.715,0.898c-0.735,0.163-1.878-0.082-3.593-1.062l-0.898-0.653
		c-0.408-0.245-0.735,0-0.98,0.408l0.98,1.388l0.408,0.246l0.408,0.326l-0.163,0.899l0.571,0.898c0.246,0.245,0.246,0.572,0,0.898
		l-1.959-0.571l-1.552-1.062l-1.96-0.245c-0.817,0.082-1.307,0.49-1.47,0.98l1.796,1.144c0.817,0.408,1.062,0.898,0.98,1.633
		c1.062,0,1.307,0.408,0.735,1.062l-1.796,0.245c-0.572,0.082-1.47-0.245-2.695-0.898c-1.551-0.816-2.369-0.735-2.45,0.245
		l0.735,1.143l0.735,1.388c0.571,1.879,0.327,2.614-0.816,2.369l-1.225-0.735l-1.47-0.245c-0.898,0.408-0.898,1.144,0,2.123
		c1.225,1.225,1.715,2.124,1.633,2.532l-1.47-0.49c-0.49-0.245-0.735-0.164-0.817,0.327l0.653,1.307
		c0.49,0.49,0.735,0.898,0.653,1.388l-1.715-0.735c-0.572-0.572-1.144-0.735-1.633-0.572l1.307,3.185
		c0,1.062-0.245,1.307-0.653,0.816l-1.307-1.388c-0.817-0.164-1.143,0.163-0.979,0.979l0.653,1.715
		c0.164,0.734-0.163,1.715-1.061,2.776l-0.817-0.735c-0.245-0.408-0.49-0.571-0.817-0.49c-0.408,0.082-0.572,0.245-0.408,0.653
		l0.572,0.898c0.735,1.388,0.653,1.796-0.409,1.388l-0.98-1.797c-0.572-0.082-0.653,0.327-0.327,1.225s0.164,1.552-0.49,1.634
		c-0.653,0.081-1.307-0.898-1.878-3.104c-0.49,0.245-0.735,0.899-0.735,1.797c-0.081,1.062-0.163,1.633-0.408,1.878
		c-0.49,0.735-0.898,0.816-1.225,0.327l-1.143-1.552l-0.816-0.245l-0.49-0.735c-0.49-0.164-0.98,0-1.225,0.408v1.715l0.245,1.878
		l-0.817-0.164l-2.777-1.878c-1.143-0.734-1.633-0.326-1.47,1.144l0.245,0.735l-0.245,0.654c-0.653,0.489-1.225,0.489-1.633,0
		l-0.898-1.389l-1.47-0.082c-0.49,0.327-0.817,0.817-0.653,1.471c0.081,0.816,0,1.388-0.327,1.633l-1.388,0.327l-0.082-0.653
		l0.163-0.735l-3.021-0.082c-1.797,1.062-2.124,1.878-0.98,2.369v1.307c-0.49,0.082-1.307,0.572-2.613,1.388
		c-0.082-1.797-0.408-2.776-0.898-3.103c-0.98-0.817-1.878-0.817-2.532,0.163l0.898-0.245l-1.389,0.817l0.49-0.572
		c-1.143,0.327-1.96,0.817-2.368,1.552l-0.98,4.165l0.408,2.042l-1.062,6.534c0,1.225,0,2.206,0.49,2.776
		c0.49,0.654,0.572,1.225,0.245,1.879c-0.572,1.633-0.572,2.695-0.164,3.104l1.062,0.572l1.552,0.244
		c0.98-0.244,1.551-0.244,1.878,0c1.552,1.225,4.819,2.367,9.556,3.348l7.513-0.49l5.716,0.164l3.349-0.734h2.368l3.512-0.898
		l7.514-0.572l2.042-0.49l1.388-1.389c0.735-0.979,1.552-1.551,2.45-1.797l3.593-1.061l0.327-1.471l1.062,0.816l1.307,0.082
		l0.49-0.408l0.408-0.572l1.389-0.244l2.858,0.326l1.633,2.777l0.327-1.389l-0.163-1.551l-0.898-0.736l-0.572-1.143
		c-0.571-0.653-1.47-0.735-2.45-0.326c-1.143,0.49-1.959,0.734-2.368,0.49c0.082-1.144,0.98-1.797,2.695-1.797
		c0.571,0,1.307,0.245,1.96,0.572l1.634,0.572c-0.327-1.47-1.797-2.45-4.492-3.104c-3.185-0.653-4.574-0.082-4.002,1.797
		l-1.144,0.408c-0.082,0.653-0.327,1.062-0.98,1.225l-1.715,0.245c-0.082,0.326-0.164,0.49-0.408,0.572l-0.817,0.245l-0.653,1.469
		l-1.389,0.164c-0.653-0.082-1.062,0.164-1.307,0.654l-1.47-0.736l-0.572,0.572c-0.653-0.082-0.816-0.654-0.571-1.797
		c0.327-1.225,0.897-1.47,1.633-0.817c0.163-0.571,0.653-0.734,1.306-0.571l1.633,0.327c0.164-0.245,0.736-0.49,1.552-0.572
		l1.714-0.653c0.736-0.572,1.225-1.389,1.715-2.532c-0.653-0.245-0.898-0.571-0.653-0.98c0.163-0.408,0.49-0.653,1.062-0.49
		l-0.082-1.307c0.408,0.245,0.898,0.163,1.389-0.245l1.307-1.062l1.715,0.082l1.552,0.327c0.408-1.389-0.654-2.124-3.104-1.96
		l-2.368,0.327l-0.572,0.734l-0.816,0.572l-0.408-2.124c0.408,0.327,0.816,0.327,1.306,0l1.144-0.817l1.796,0.327l1.389-0.245
		c-1.062-2.205-3.185-2.368-6.533-0.408c-1.634,0.98-2.205,1.796-1.96,2.613l0.653,0.571c0.49,0.245,0.653,0.409,0.653,0.654
		l-0.735,1.388l0.735,0.898l-1.633,0.98l-2.123,0.327l-0.898,1.307l-0.816,0.163c-0.246-0.082-0.49,0.082-0.572,0.327l-2.042-0.163
		l-0.571-0.735l-0.817-0.654c-0.571-0.245-0.98,0.164-1.389,0.898l-0.816,1.633c-1.551-1.143-2.287-3.103-2.123-5.88l1.714,0.571
		l-0.734-1.47l-0.408-1.797c0.326-1.633,1.143-2.368,2.286-2.368v-3.43c0.817-1.144,1.143-0.572,1.143,1.47
		c0.082,1.388-0.081,3.593-0.571,6.696l2.776-4.982l0.245-2.776c0.082-1.307,0.49-1.797,1.144-1.225
		c0.571,0.408,0.735,1.388,0.49,2.94l-2.858,7.105c0.408,0.081,0.979-0.572,1.715-2.042l1.47-2.94l0.979-1.144l0.164-1.47
		l1.225-2.777c0.408,0.082,0.571,0.653,0.408,1.552l-0.326,2.776l2.368-7.105h0.572l0.245,4.492c0.653-0.816,1.144-1.96,1.225-3.185
		l-0.082-2.124l0.164-1.878c1.143-0.327,1.633,0.49,1.47,2.45c-0.164,1.96,0,2.858,0.408,2.777c0-2.287,0.327-3.757,1.062-4.41
		c0.246,0.245,0.654,1.225,1.225,2.94l1.633,2.695l8.167,5.472l3.43,1.389c0.735,0.49,1.715,1.307,2.695,2.45l2.45,2.695
		c2.041,1.797,4.41,2.695,6.941,2.94l1.878-0.245l0.98-0.245c0.082,0,0.163,0.082,0.245,0.164l0.326,0.163
		c1.715-0.163,2.614-0.735,2.695-1.797l-1.388-0.49l-0.899-1.062l-3.267-1.144l-2.939-1.796l-2.368-2.45l-2.695-1.96l0.163-0.408
		l-3.104-4.329c-1.225-2.858-1.225-4.329,0.082-4.655l1.062,0.49l1.307-0.082l-2.205-3.594l-1.796-1.225
		c-1.063-0.572-1.716-0.817-1.961-0.572l-0.245-0.816l2.532-0.327l0.734-0.654l0.899-0.245c0.489-0.164,0.979,0,1.47,0.408
		l1.225,0.571l2.042-0.571c0.816-0.164,1.471,0.163,1.96,0.98c0.49,0.735,0.98,1.307,1.552,1.388l2.123,0.408l1.552,1.226
		c1.226-0.082,2.042,0.163,2.287,0.735l2.205,0.245l2.449,0.817l2.532,0.081c1.225,0.082,1.96,0.327,2.286,0.735l0.98-0.082
		l0.898,0.408l1.634-0.163c1.388,0.163,2.041,0.98,2.041,2.45c1.062,0.408,1.879,0.246,2.695-0.571l0.979-1.633l0.653-1.633
		c0.409-1.062,0.327-2.042-0.326-2.858l-1.879-2.94c-0.816-1.389-1.47-2.287-2.205-2.858l-3.103-2.042l-3.267-1.062l-3.839-3.348
		l-0.897-0.245l-0.736-0.572l-5.553-3.92c-2.45-1.552-4.083-2.94-4.573-4.247l-1.47-0.654h-0.735l-0.735-0.245l-0.082-1.225
		c0.082-0.653-0.163-1.225-0.571-1.552l-3.267-0.816L317.465,343.662L317.465,343.662z"/>
	<path fill-rule="evenodd" clip-rule="evenodd" d="M328.816,372c-0.489-0.245-0.898,0.327-1.144,1.552l0.898-0.653
		C328.979,372.409,329.062,372.082,328.816,372L328.816,372z"/>
	<polygon fill-rule="evenodd" clip-rule="evenodd" points="330.287,373.062 329.96,372.572 329.062,373.307 328.245,374.777 
		329.307,374.124 330.287,373.062 	"/>
	<path fill-rule="evenodd" clip-rule="evenodd" d="M330.858,374.94c0.735-0.816,0.898-1.388,0.571-1.796
		c-0.163-0.164-0.571,0-0.98,0.408l-1.388,2.777L330.858,374.94L330.858,374.94z"/>
	<path fill-rule="evenodd" clip-rule="evenodd" d="M333.063,373.715c-0.735,0.082-1.144,0.327-1.307,0.736l-0.49,1.143l-1.226,2.124
		l2.042-1.715l1.062-1.389L333.063,373.715L333.063,373.715z"/>
	<path fill-rule="evenodd" clip-rule="evenodd" d="M334.288,374.369l-2.776,3.838c1.796-0.816,2.939-1.714,3.512-2.939l0.163-0.408
		l-0.163-0.327l-0.327-0.327L334.288,374.369L334.288,374.369z"/>
	<path fill-rule="evenodd" clip-rule="evenodd" d="M336.902,374.859c-0.409-0.164-0.817,0.081-1.308,0.734l-2.287,3.104
		c1.961-0.571,3.186-1.633,3.839-3.104C337.229,375.185,337.146,374.94,336.902,374.859L336.902,374.859z"/>
	<path fill-rule="evenodd" clip-rule="evenodd" d="M338.779,375.267h-0.571l-0.408,0.326c-0.653,1.47-1.388,2.45-2.042,3.022
		l2.858-2.123l0.327-0.817L338.779,375.267L338.779,375.267z"/>
	<path fill-rule="evenodd" clip-rule="evenodd" d="M339.352,376.247l-0.245,0.082l-0.245,0.327l-0.408,0.98l-1.062,1.47l1.797-1.307
		C339.842,376.737,339.842,376.247,339.352,376.247L339.352,376.247z"/>
	<path fill-rule="evenodd" clip-rule="evenodd" d="M341.475,376.002c-0.081-0.409-0.408-0.409-0.816-0.245
		c-0.245,0.082-0.408,0.49-0.408,0.898l-0.653,1.715c0.408,0,0.816-0.327,1.307-1.062L341.475,376.002L341.475,376.002z"/>
	<path fill-rule="evenodd" clip-rule="evenodd" d="M342.536,376.002c-0.244-0.164-0.653,0-0.897,0.571
		c-0.572,1.225-1.389,2.369-2.532,3.104c0.735,0,1.715-0.49,2.695-1.389C342.455,376.9,342.781,376.165,342.536,376.002
		L342.536,376.002z"/>
	<path fill-rule="evenodd" clip-rule="evenodd" d="M344.415,376.165c-0.49-0.163-0.817-0.163-1.062,0.327l-0.49,1.225
		c-0.327,0.979-0.98,1.878-1.879,2.776l2.777-2.124c0.49-0.49,0.734-0.898,0.816-1.307
		C344.741,376.573,344.66,376.247,344.415,376.165L344.415,376.165z"/>
	<path fill-rule="evenodd" clip-rule="evenodd" d="M346.212,376.573c-0.49-0.245-1.063,0.245-1.471,1.307l-1.144,2.042l2.124-1.552
		C346.457,377.309,346.62,376.737,346.212,376.573L346.212,376.573z"/>
	<path fill-rule="evenodd" clip-rule="evenodd" d="M345.967,378.615c1.47-0.735,1.96-1.225,1.552-1.633
		c-0.245-0.245-0.572-0.164-0.98,0.408L345.967,378.615L345.967,378.615z"/>
	<path fill-rule="evenodd" clip-rule="evenodd" d="M348.416,378.288c-0.244-0.408-1.225,0.409-3.185,2.287
		c0.735,0,1.471-0.245,2.368-0.898C348.416,379.105,348.743,378.615,348.416,378.288L348.416,378.288z"/>
	<path fill-rule="evenodd" clip-rule="evenodd" d="M336.656,389.15c-1.878,1.878-2.531,3.021-1.878,3.593
		C335.758,393.479,336.33,392.254,336.656,389.15L336.656,389.15z"/>
	<path fill-rule="evenodd" clip-rule="evenodd" d="M335.922,387.517c-1.961,2.45-2.777,3.92-2.368,4.328
		C334.288,392.335,335.023,390.947,335.922,387.517L335.922,387.517z"/>
	<path fill-rule="evenodd" clip-rule="evenodd" d="M331.675,390.865c0.49,0.408,1.225-0.327,2.123-1.878
		c0.735-1.47,1.226-2.532,1.144-2.94l-2.042,2.124C331.675,389.64,331.267,390.457,331.675,390.865L331.675,390.865z"/>
	<path fill-rule="evenodd" clip-rule="evenodd" d="M329.878,390.212c0.571,0,1.307-0.49,1.96-1.47l0.98-1.878l-3.594,2.45
		c-0.326,0.164-0.408,0.327-0.163,0.572L329.878,390.212L329.878,390.212z"/>
	<path fill-rule="evenodd" clip-rule="evenodd" d="M330.449,388.17l1.226-2.45l0.735-2.613l-2.45,3.675l-0.572,1.144
		c-0.081,0.408,0,0.572,0.245,0.653L330.449,388.17L330.449,388.17z"/>
	<path fill-rule="evenodd" clip-rule="evenodd" d="M327.592,388.742c0.653,0.408,1.062-0.082,1.47-1.144l0.408-2.286
		C327.837,387.436,327.183,388.497,327.592,388.742L327.592,388.742z"/>
	<path fill-rule="evenodd" clip-rule="evenodd" d="M327.02,387.598c0.898-0.979,1.389-2.123,1.634-3.756l-2.287,2.695l-0.081,0.899
		C326.366,387.762,326.693,387.844,327.02,387.598L327.02,387.598z"/>
	<polygon fill-rule="evenodd" clip-rule="evenodd" points="326.285,384.74 326.938,382.944 324.896,384.904 324.651,385.72 
		325.305,386.21 326.285,384.74 	"/>
	<path fill-rule="evenodd" clip-rule="evenodd" d="M325.469,381.882l-1.553,1.633c-0.734,0.572-0.898,0.898-0.326,1.144
		c0.326,0.163,0.816-0.164,1.307-0.98C325.305,383.025,325.469,382.454,325.469,381.882L325.469,381.882z"/>
	<path fill-rule="evenodd" clip-rule="evenodd" d="M324.651,380.33l-2.776,2.287l0.163,0.898c0.245,0.245,0.49,0.327,0.653,0.164
		l1.062-1.307L324.651,380.33L324.651,380.33z"/>
	<path fill-rule="evenodd" clip-rule="evenodd" d="M321.058,381.882c0.654,0.163,1.226-0.572,1.634-2.205l-1.47,0.98l-0.735,0.735
		L321.058,381.882L321.058,381.882z"/>
	<path fill-rule="evenodd" clip-rule="evenodd" d="M321.956,378.615l-1.47,0.735c-0.653,0.49-0.735,0.898-0.326,1.307
		C320.404,380.984,321.058,380.33,321.956,378.615L321.956,378.615z"/>
	<path fill-rule="evenodd" clip-rule="evenodd" d="M319.507,379.105c0.408,0.326,0.897-0.163,1.388-1.47l-1.062,0.735
		C319.425,378.697,319.18,378.942,319.507,379.105L319.507,379.105z"/>
	<path fill-rule="evenodd" clip-rule="evenodd" d="M319.588,377.472l0.408-0.817l-1.225,0.49v0.572
		C319.017,378.043,319.343,377.88,319.588,377.472L319.588,377.472z"/>
	<path fill-rule="evenodd" clip-rule="evenodd" fill="#D6504D" d="M321.058,351.093l0.327,0.327
		c-0.408-0.082-0.98,0.082-1.552,0.572c-0.653,0.653-0.816,1.144-0.735,1.633l1.144,1.307c0.653,0.408,0.898,0.816,0.816,1.47
		c-0.081,0.816-0.816,1.388-2.123,2.205c-0.898,0.49-0.898,1.388,0,2.531c0.898,1.144,1.715,0.98,2.695-0.245l1.715-3.267
		c0.245-0.98,0.163-2.205-0.245-3.594l-1.552-3.267h-0.408L321.058,351.093L321.058,351.093z"/>
	<path fill-rule="evenodd" clip-rule="evenodd" fill="#D6504D" d="M327.347,356.238l0.163-0.163l-0.735,0.327l0.245,1.878
		l0.653,1.715c0.245,0.98,0.245,1.551,0.082,1.878l-0.653,0.408l-0.816,0.245c-0.164,0.245,0.245,1.062,1.388,2.45l2.368,2.286
		c0.653,0.246,1.634-0.408,3.022-1.715c1.062-0.98,1.225-1.96,0.571-3.021l-4.165-5.145c-0.734-1.388-1.307-1.797-1.96-1.307
		c0.245-0.082,0.49,0,0.817,0.327h-0.735L327.347,356.238L327.347,356.238z"/>
	<path fill-rule="evenodd" clip-rule="evenodd" fill="#D6504D" d="M335.758,366.61l1.225-0.49c-1.306,0-2.204,0.164-2.449,0.572
		c-0.817,0.98-0.735,1.552,0.245,1.715l1.878-0.163l2.368,0.163C339.27,366.773,338.208,366.202,335.758,366.61L335.758,366.61z"/>
	<path fill-rule="evenodd" clip-rule="evenodd" fill="#D6504D" d="M279.816,385.23l-0.571-0.735c-0.572,0-0.572,0.572,0.163,1.797
		l0.817,0.898c0.408,0.327,0.572,0.654,0.49,0.98L279,387.272l0.572,1.225l1.143,0.816c1.144,1.633,1.715,2.124,1.878,1.715
		l-0.408-1.633l0.327-0.98c0.082-0.327,0-0.571-0.245-0.653l-0.245,0.49l-0.408,0.409v-0.49l0.082-0.572l-1.633-2.368H279.816
		L279.816,385.23z"/>
	<path fill-rule="evenodd" clip-rule="evenodd" fill="#D6504D" d="M278.183,392.335c-0.082-0.572-0.245-0.817-0.49-0.735
		l-0.245,0.327l-0.409,0.163l-0.326,0.898l0.571,0.246l0.164,0.326c0.898,0.899,1.307,0.98,1.225,0.327l-0.163-0.409l-0.327-0.408
		V392.335L278.183,392.335z"/>
	<path fill-rule="evenodd" clip-rule="evenodd" fill="#D6504D" d="M280.878,394.459c-0.327-1.144-0.653-1.307-0.98-0.735v0.164
		l0.409,2.45l0.572,0.571l0.245,0.326l0.572,0.082l0.653,0.816c0.245,0.246,0.409,0.082,0.49-0.488
		C283.083,395.847,282.348,394.867,280.878,394.459L280.878,394.459z"/>
	<path fill-rule="evenodd" clip-rule="evenodd" fill="#D6504D" d="M284.553,396.828l-0.082-0.083
		c-0.653-0.326-0.735,0.083-0.49,1.226l-0.083,0.652l-0.245,0.654c0.082,0.57,0.409,0.57,0.98,0l0.735-1.307L284.553,396.828
		L284.553,396.828z"/>
	<polygon fill-rule="evenodd" clip-rule="evenodd" fill="#D6504D" points="279.489,400.746 279.326,399.031 278.672,398.869 
		277.856,398.461 277.039,398.297 276.468,397.563 275.733,397.072 275.079,396.337 274.834,397.971 275.488,401.4 277.121,402.625 
		278.346,402.871 279.979,402.543 280.306,402.299 279.489,400.746 	"/>
	<path fill-rule="evenodd" clip-rule="evenodd" fill="#D6504D" d="M270.343,397.154c-0.572,0.57-0.98,1.307-0.817,2.041v1.471
		l0.245,1.469l0.653,0.49l0.735-0.082l0.49,0.328l2.369-0.164l0.408-0.164l-0.898-1.797l-1.062-3.184l0.163-1.797
		C272.058,395.684,271.323,396.255,270.343,397.154L270.343,397.154z"/>
	<path fill-rule="evenodd" clip-rule="evenodd" fill="#D6504D" d="M266.831,397.072l-0.082,1.143l-0.817,0.164
		c-0.327,0-0.572,0.082-0.653,0.244l1.797,3.35l0.98,0.898l0.816,0.57l0.082-0.488l-0.164,0.244l-1.144-3.186l0.082-0.98
		l-0.082-0.326l-0.163-0.408v-0.572l0.082-0.408C267.484,396.908,267.239,396.828,266.831,397.072L266.831,397.072z"/>
	<path fill-rule="evenodd" clip-rule="evenodd" fill="#D6504D" d="M262.258,400.42c-0.327,0.49-0.164,0.816,0.408,1.145l1.797,0.57
		l1.388,0.246l-1.388-1.145c-0.653-0.49-1.062-0.98-0.98-1.389C262.993,399.439,262.584,399.604,262.258,400.42L262.258,400.42z"/>
	<path fill-rule="evenodd" clip-rule="evenodd" fill="#D6504D" d="M283.328,383.025l-0.082-0.572l-0.327-0.327
		c-0.49-0.408-0.653-0.408-0.735,0l-0.082,0.408l0.164,0.49c0.082,0.163,0.163,0.408,0.082,0.49l-0.163,0.245v0.817l0.327,0.163
		h0.327l0.082-0.081l0.082-0.245v-0.163l-0.082-0.409l0.245-0.327L283.328,383.025L283.328,383.025z"/>
	<polygon fill-rule="evenodd" clip-rule="evenodd" fill="#D6504D" points="281.368,382.535 280.959,382.454 280.633,382.78 
		280.714,383.515 280.959,383.842 281.041,384.005 281.368,383.923 281.449,383.679 281.449,383.188 281.368,382.944 
		281.449,382.78 281.368,382.535 	"/>
	<polygon fill-rule="evenodd" clip-rule="evenodd" points="389.495,439.703 389.495,401.645 221.587,401.645 221.587,439.703 
		389.495,439.703 	"/>
	<path fill-rule="evenodd" clip-rule="evenodd" fill="#FFFFFF" d="M229.836,424.268l-1.47,1.797l-1.878,0.734h-0.327l-0.082,0.164
		h-0.163l-0.654-0.164l-1.307-0.326l-0.572-0.082h-0.408l-0.572,0.244l1.715,8.984l0.979,0.49l1.634,0.408l1.551,0.162
		c1.797,0,3.43-0.488,4.982-1.633c1.552-1.061,2.858-2.531,3.838-4.736l0.327-25.563l-8.33,0.082l0.98,15.844L229.836,424.268
		L229.836,424.268L229.836,424.268z M233.103,408.914l0.898-0.326l0.49,18.701c-0.327,1.225-0.735,2.123-1.307,2.695l-2.205,1.469
		l-0.327,0.164l-0.245,0.164l-1.144,0.49h-0.245l-0.327,0.162l-2.042-0.162l-0.654-0.572v-0.898l0.654,0.164h0.816
		c1.225,0,2.205-0.328,3.021-0.98c1.225-0.572,2.042-1.553,2.777-2.777L233.103,408.914L233.103,408.914z"/>
	<path fill-rule="evenodd" clip-rule="evenodd" fill="#FFFFFF" d="M254.745,408.424l-0.164-0.98h-1.47l-0.408-0.082l-1.47,0.082
		l-0.98,0.246l-1.062,17.967l-0.49,0.652l-0.898,0.164h-0.409l-0.327,0.082h-0.49l-0.817-0.164l-0.816-0.408l-0.245-18.539
		l-0.98-0.164l-4.329,0.246l-0.327,22.949c0.653,0.49,1.389,0.816,1.96,1.143l2.695,1.307l1.225,0.408l1.96-1.633l1.878-1.225
		l0.327,0.49l0.082,0.734v0.572l0.163,0.49l5.309-0.164L254.745,408.424L254.745,408.424L254.745,408.424z M252.212,410.629h0.082
		l0.327,0.164l-0.408,18.211l-0.082,0.244h-0.082l-0.327-0.08l-0.164-0.328l-0.082-0.408l-0.245-0.162l-6.533,1.551l-0.98-0.408
		v-0.082l-1.307-0.898c-0.409-0.326-0.572-0.979-0.572-1.959v-1.145l0.082-0.734l0.082-13.965l0.164-0.326h0.163l0.245,0.082
		l0.082,0.326l-0.409,16.252l1.307,1.469l1.552,0.816l3.675-1.143l2.94-0.49L252.212,410.629L252.212,410.629z"/>
	<path fill-rule="evenodd" clip-rule="evenodd" fill="#FFFFFF" d="M268.382,409.404c-0.653-0.98-1.306-1.471-2.123-1.715
		l-2.368-0.41h-1.225l-5.554,0.818h-0.326l-0.164,0.162l-0.245,24.338l0.164,0.408h5.063l0.163-6.697l0.082-0.244v-0.326l0.082-0.49
		l0.164-0.328h0.245l3.92,8.25h0.49l0.408,0.08h0.408l0.327,0.082l1.878-0.082l1.062-0.408l-0.735-2.613l-1.143-2.449v-0.082
		l-1.634-4.328l0.899-1.307l1.959-3.676v-0.49l0.082-0.652v-1.063l-0.49-3.674C269.363,411.201,268.955,410.139,268.382,409.404
		L268.382,409.404L268.382,409.404z M258.909,410.465l1.878-0.408l1.878-0.162l2.123,0.244l1.47,1.143l0.735,0.816l0.408,1.145
		l0.245,1.225l0.082,1.879l-0.245,1.877l-1.062,2.043l-1.47,1.471l-0.653,0.49l2.287,5.389l0.164,0.328l0.082,0.244l0.898,2.123
		l-0.082,0.082h-0.163l-0.082-0.082l-2.531-5.063v-0.246l-0.98-2.449l-4.41,0.162v7.105l-0.082,0.082l-0.246,0.082l-0.163-0.164
		l-0.082-0.408V410.465L258.909,410.465z"/>
	<path fill-rule="evenodd" clip-rule="evenodd" fill="#FFFFFF" d="M260.788,411.037l-0.653,0.082h-0.572l-0.082,10.535l0.327,0.408
		l2.287-0.082l2.613-0.816c0.898-0.408,1.552-1.307,2.124-2.613l0.327-1.063l0.082-2.041l-0.327-1.633
		c-0.245-1.145-0.898-2.043-1.633-2.451c-0.98-0.408-1.796-0.57-2.368-0.57l-0.49,0.08h-1.062L260.788,411.037L260.788,411.037
		L260.788,411.037z M265.198,415.121v0.572l-0.49,1.633l-0.816,1.307h-0.082l-0.572,0.49l-0.572,0.244h-0.245l-0.327,0.082
		l-0.245-1.471l-0.082-4.9l0.571-0.244l0.49-0.082c0.409,0,0.898,0.164,1.307,0.572c0.409,0.326,0.735,0.816,0.898,1.633
		L265.198,415.121L265.198,415.121z"/>
	<path fill-rule="evenodd" clip-rule="evenodd" fill="#FFFFFF" d="M276.549,407.443l-2.124-0.164l-6.125,25.563l0.081,0.164v0.164
		l4.655,0.08l0.409-0.488l0.653-3.105h0.326l0.572,0.082h3.349l1.062-0.162l0.49,2.123l0.49,1.471h5.308l-2.694-12.822l-0.164-0.572
		l-0.082-0.734l-2.859-11.516l-0.245-0.164L276.549,407.443L276.549,407.443L276.549,407.443z M277.774,410.711l0.164,0.082
		l4.9,18.945l-0.327,0.326l-0.164-0.08l-0.163-0.898l-0.735-2.451l-8.82,0.082l-0.49,1.307l-0.082,0.164v0.164l-0.49,1.795
		l-0.164-0.162h-0.082l4.982-19.6l0.408,0.244h0.408l0.408,0.082H277.774L277.774,410.711z"/>
	<path fill-rule="evenodd" clip-rule="evenodd" fill="#FFFFFF" d="M277.611,411.363h-0.898l-0.082,0.408l-2.123,7.922l-1.552,6.289
		h8.33L277.611,411.363L277.611,411.363L277.611,411.363z M278.02,424.104h-0.98l-0.571-0.162h-0.572l-0.245,0.08l1.388-5.553
		l1.307,4.328l0.164,1.063L278.02,424.104L278.02,424.104z"/>
	<path fill-rule="evenodd" clip-rule="evenodd" fill="#FFFFFF" d="M288.799,406.545l-0.163,0.164l-1.878,3.104l-1.388,3.756
		l-0.246,1.063v0.979l0.246,2.125l0.816,2.285l0.163,0.246l0.817,2.205l0.408,2.449v0.246l-0.082,0.162v0.082
		c0,1.063-0.163,2.043-0.653,2.777l-1.633,3.186l1.552,1.143l1.796,0.816l0.327,0.082l0.409,0.164l0.816,0.408
		c0.654-0.572,1.225-1.307,1.878-2.451l1.552-4.572l0.082-1.307l-0.246-2.287l-0.735-2.287l-0.163-0.326l-0.817-2.777l-0.489-2.613
		l1.062-3.512c0.572-1.225,1.143-2.205,1.715-2.777v-0.816L288.799,406.545L288.799,406.545L288.799,406.545z M289.208,411.363
		l0.327-0.734l0.571-0.408h0.164l-0.164,0.816l-0.571,1.143l-0.082,0.408l-0.572,1.309l-0.245,1.469l0.245,2.043l0.735,2.611
		l0.082,0.572l0.898,2.777l0.327,2.613l-0.408,2.205l-1.388,2.041l-0.246-0.326l1.144-2.123l0.327-1.961l-0.245-1.959l-1.796-5.717
		l-0.327-2.613l0.082-1.471l0.572-1.471l0.327-0.49l0.164-0.57v-0.082L289.208,411.363L289.208,411.363z"/>
	<path fill-rule="evenodd" clip-rule="evenodd" fill="#FFFFFF" d="M302.193,409.076v-0.816l-5.227-1.715v0.082l-0.082,0.082
		l-1.878,3.104l-1.307,3.756l-0.245,1.063l-0.082,0.979l0.246,2.125l0.653,2.041l0.245,0.244l0.898,2.451l0.327,2.449v0.49
		c0,0.898-0.163,1.879-0.572,2.777l-1.225,2.449l-0.245,0.328l-0.163,0.408l1.552,1.143l1.633,0.816l0.408,0.082l0.817,0.408
		l0.408,0.164c0.817-0.572,1.389-1.307,1.797-2.451l1.306-3.348l0.327-1.225l0.082-1.307l-0.327-2.287l-0.572-2.287l-0.327-0.652
		l-0.817-2.451l-0.408-2.613l1.144-3.512L302.193,409.076L302.193,409.076L302.193,409.076z M298.273,410.221h0.164l-0.164,0.816
		l-0.327,0.816l-0.082,0.326l-0.163,0.408l-0.572,1.309l-0.245,1.469l0.816,4.084l1.144,3.92l0.408,2.613l-0.408,2.205
		c-0.49,0.898-0.898,1.551-1.47,2.041l-0.245-0.326l1.062-2.123l0.327-1.961l-0.164-1.959l-1.715-5.717l-0.408-2.613l0.163-1.471
		l0.49-1.471l0.245-0.49l0.245-0.57l0.082-0.082v-0.082l0.327-0.734L298.273,410.221L298.273,410.221z"/>
	<path fill-rule="evenodd" clip-rule="evenodd" fill="#FFFFFF" d="M306.685,407.279l-1.388,0.164h-0.082l-1.307,0.164l0.082,25.316
		l0.98,0.326l1.552,0.082l3.349-0.49l-0.082-25.48l-0.898-0.082H306.685L306.685,407.279L306.685,407.279z M306.93,410.711
		l0.326,0.244l0.082,0.572l-0.163,18.129h-0.49v-18.863l0.163-0.082H306.93L306.93,410.711z"/>
	<path fill-rule="evenodd" clip-rule="evenodd" fill="#FFFFFF" d="M318.199,415.039l1.226-0.98l0.408-0.162l0.082-0.082l0.653-0.246
		l0.489-0.652l-2.776-5.637h-0.408c-0.653,0-1.144,0.164-1.634,0.49l-1.47,1.307l-0.245,0.164l-0.897,0.898
		c-1.145,1.143-2.124,2.777-2.858,4.818c-0.735,1.961-1.063,4.002-1.063,6.125v0.572l0.082,0.572
		c0.408,2.449,1.307,4.572,2.613,6.287l4.165,4.166l0.98,0.652h1.061l0.164-0.326l0.082-0.244l2.204-5.229l-0.408-0.162
		l-2.368-1.553l-1.878-2.287h-0.164v-0.08l-0.653-1.553l-0.245-1.797v-0.57l0.082-0.49l1.226-2.369L318.199,415.039L318.199,415.039
		L318.199,415.039z M316.076,412.916l-2.123,3.021c-0.816,1.307-1.144,2.695-1.226,4.164c0.082,2.043,0.572,3.758,1.389,5.064
		l2.777,3.348l0.489,0.164l0.49,0.49l-0.163,0.57c-0.98-0.408-2.042-1.307-3.022-2.531l-2.205-4.41l-0.244-1.061v-1.635l0.244-2.123
		l0.572-2.041l2.613-3.676c0.571-0.734,1.307-1.143,2.205-1.225L316.076,412.916L316.076,412.916z"/>
	<path fill-rule="evenodd" clip-rule="evenodd" fill="#FFFFFF" d="M341.883,411.609c-0.979-3.021-2.368-4.818-4.165-5.473
		l-5.798-1.061l-4.165-0.164l-0.98-0.164l-0.326,31.443l7.268,0.488l-0.162-8.002l0.407-2.123l3.921-0.49h0.081l2.858-2.287
		c0.898-1.063,1.471-2.369,1.797-3.838l0.327-3.594l-0.327-2.613L341.883,411.609L341.883,411.609L341.883,411.609z
		 M329.797,408.506h2.939l3.512,0.734c1.144,0.326,2.124,1.225,2.858,2.857l0.735,2.043l0.327,2.287v0.49l-0.082,0.408v0.408
		l-0.082,0.57c-0.49,2.205-1.226,3.594-2.613,4.084l-3.92,1.063l-1.96,0.08l-1.225,0.246v9.146h-0.654v-0.082v-0.08v-0.082
		L329.797,408.506L329.797,408.506z"/>
	<path fill-rule="evenodd" clip-rule="evenodd" fill="#FFFFFF" d="M331.838,409.486h-1.47l0.081,13.066h1.634l0.327,0.082h0.897
		l3.349-0.816c1.144-0.654,1.96-1.717,2.613-3.186v-0.328l0.082-0.326l-0.082-2.695l-0.326-1.715
		c-0.816-1.879-1.715-3.104-3.021-3.512L331.838,409.486L331.838,409.486L331.838,409.486z M333.472,412.344l0.653,0.244
		l1.552,0.654c0.489,0.326,0.816,0.816,0.979,1.553v0.326l0.246,1.389l-0.164,0.816l-0.326,0.816l-1.063,0.734l-1.225,0.164h-0.653
		l-0.164-1.307l-0.081-3.758L333.472,412.344L333.472,412.344z"/>
	<path fill-rule="evenodd" clip-rule="evenodd" fill="#FFFFFF" d="M351.847,407.361h-1.307l-0.735,0.082l-3.267-0.164l-6.125,25.563
		v0.328l4.736,0.08l0.327-0.488l0.735-3.105h0.326l0.653,0.082h3.349l0.898-0.162l0.49,2.123l0.244,0.816l0.327,0.654h5.309
		l-5.799-25.645L351.847,407.361L351.847,407.361L351.847,407.361z M349.642,410.711h0.163l0.327,0.082l4.817,18.945l-0.244,0.326
		l-0.326-0.08l-0.082-0.49v-0.408l-0.164-0.654l-0.244-0.488l-0.408-1.309l-8.739,0.082l-0.245,0.572l-0.244,0.734v0.164
		l-0.164,0.164l-0.49,1.877v-0.244h-0.244l5.063-19.6l0.49,0.244h0.327L349.642,410.711L349.642,410.711z"/>
	<path fill-rule="evenodd" clip-rule="evenodd" fill="#FFFFFF" d="M349.642,411.363h-0.735l-0.163,0.408l-3.675,14.211h8.248
		L349.642,411.363L349.642,411.363L349.642,411.363z M348.008,421.98l1.144-3.512l1.144,3.186l0.327,2.205l-0.49,0.244h-0.98
		l-0.163-0.082l-0.326-0.08h-0.654l-0.245,0.08L348.008,421.98L348.008,421.98z"/>
	<path fill-rule="evenodd" clip-rule="evenodd" fill="#FFFFFF" d="M356.991,408.098h-0.326l-0.163,0.162l-0.245,24.338l0.163,0.408
		h4.982l0.244-6.697l0.164-0.244v-0.816l0.244-0.328h0.082l4.083,8.25h0.409l0.408,0.08h0.326l0.49,0.082l1.878-0.082l1.062-0.408
		l-1.96-5.063v-0.082l-1.715-4.328l0.408-0.734l0.572-0.572l1.878-3.676l0.163-1.143v-1.063c0-1.307-0.163-2.531-0.489-3.674
		c-0.245-1.145-0.735-2.205-1.389-3.104c-0.816-0.98-1.471-1.471-2.205-1.715l-2.287-0.41h-1.225L356.991,408.098L356.991,408.098
		L356.991,408.098z M358.87,410.465l1.797-0.408l1.796-0.162l2.287,0.244l1.47,1.143l0.571,0.816l0.49,1.145l0.245,1.225
		l0.164,1.879l-0.327,1.877l-0.98,2.043l-1.47,1.471l-0.734,0.49l2.286,5.389l0.082,0.328l0.163,0.244l0.98,2.123l-0.164,0.082
		h-0.163l-0.082-0.082l-2.449-5.063v-0.082l-0.082-0.164l-0.98-2.449l-4.491,0.162v7.105l-0.163,0.164l-0.163-0.164l-0.246-0.408
		L358.87,410.465L358.87,410.465z"/>
	<path fill-rule="evenodd" clip-rule="evenodd" fill="#FFFFFF" d="M360.667,411.037l-0.653,0.082h-0.572l-0.163,10.535l0.327,0.408
		h1.552l0.897-0.082l2.532-0.816c0.898-0.408,1.633-1.307,2.123-2.613l0.327-1.063l0.081-1.143l-0.081-0.49v-0.408l-0.082-0.816
		l-0.164-0.816c-0.244-1.145-0.897-2.043-1.633-2.451l-2.368-0.57l-0.49,0.08h-1.143L360.667,411.037L360.667,411.037
		L360.667,411.037z M362.137,412.834l0.49-0.082c0.489,0,0.979,0.164,1.388,0.572c0.327,0.244,0.735,0.734,0.98,1.633l0.082,0.164
		v0.572l-0.49,1.633l-0.817,1.307h-0.081l-0.082,0.08l-0.571,0.41l-0.572,0.244H362.3l-0.245,0.082l-0.408-1.471v-4.9
		L362.137,412.834L362.137,412.834z"/>
	<path fill-rule="evenodd" clip-rule="evenodd" fill="#FFFFFF" d="M382.554,407.279l-0.082,0.082l-2.286,4.574l-2.614,3.758
		l-0.244-1.309l0.081-6.859H372.1l0.245,25.48h1.471l0.653,0.082h0.163l0.245,0.082h1.47l0.816-0.246l0.245-7.105l0.653,0.572
		l2.777,3.512l1.797,3.268l0.489,0.162l4.41-3.186v-0.57l-6.125-8.168V421l6.044-9.963v-0.816L382.554,407.279L382.554,407.279
		L382.554,407.279z M383.941,411.201l0.327,0.244l-2.287,3.92l-2.449,3.348l-0.082,0.082l-0.082,0.164l-1.47,1.715l2.613,3.838
		l0.163,0.164l3.349,5.145l-0.735-0.082l-5.961-8.33l-0.164,0.164l-0.081,0.082l-0.327,0.164l-0.408,0.326l-1.062,0.898
		l-0.163,7.104l-0.245-0.162l-0.163,0.08l-0.082,0.082l-0.082-19.926h0.572l0.081,7.514l-0.081,1.225l0.081,3.021l2.45-1.961
		l4.247-5.553l0.408-0.734L383.941,411.201L383.941,411.201z"/>
	<path fill-rule="evenodd" clip-rule="evenodd" fill="#D6504D" d="M233.919,408.588l-0.816,0.326l0.163,18.293
		c-0.816,1.225-1.715,2.205-2.777,2.777c-0.898,0.652-1.878,0.98-3.021,0.98h-0.327l-0.49-0.082h-0.327l-0.327-0.082v0.898
		l0.654,0.49l0.898,0.244h0.735l0.409-0.162h0.571l0.49-0.246l0.572-0.326l0.327-0.082l0.327-0.164l2.124-1.469
		c0.653-0.572,1.062-1.553,1.307-2.777L233.919,408.588L233.919,408.588z"/>
	<path fill-rule="evenodd" clip-rule="evenodd" fill="#D6504D" d="M252.294,410.629l-0.082-0.164l-0.49,17.068l-4.818,1.063
		l-1.797,0.652l-1.552-0.896l-1.307-1.389l0.409-16.252l-0.164-0.326l-0.164-0.164l-0.163,0.082l-0.164,0.326l-0.163,15.762
		c0,1.063,0.163,1.715,0.572,2.041l1.225,0.898l0.082,0.082h0.245l0.327,0.164l0.408,0.244l0.245-0.082l0.49-0.162l5.798-1.307
		l0.245,0.162l0.082,0.246v0.162l0.164,0.246l0.327,0.162l0.163-0.244l0.408-18.131l-0.082-0.08l-0.082-0.164H252.294
		L252.294,410.629z"/>
	<path fill-rule="evenodd" clip-rule="evenodd" fill="#D6504D" d="M260.788,410.057l-1.878,0.408l-0.082,18.947l0.164,0.326
		l0.163,0.164h0.164l0.082-0.164v-7.023l4.492-0.162l0.898,2.449h0.082v0.246l2.531,5.063h0.082v0.082h0.163l0.082-0.082v-0.082
		l-3.43-8.084l0.327-0.164l0.327-0.244l1.47-1.471l1.062-2.043l0.245-1.877l-0.082-1.961l-0.245-1.143l-0.408-1.145l-0.735-0.816
		l-1.47-1.143l-1.062-0.244L260.788,410.057L260.788,410.057L260.788,410.057z M259.808,411.119l0.327-0.082l1.796-0.244h0.98
		c0.816,0,1.552,0.162,2.368,0.57c0.735,0.408,1.307,1.307,1.633,2.369l0.245,1.715l0.082,0.326l-0.082,1.635l-0.327,1.143
		c-0.572,1.389-1.225,2.205-2.124,2.613l-2.613,0.816l-2.368,0.082l-0.327-0.49l0.163-10.453H259.808L259.808,411.119z"/>
	<path fill-rule="evenodd" clip-rule="evenodd" fill="#D6504D" d="M276.713,410.629l-0.408-0.244l-5.063,19.518h0.163l0.164,0.162
		v-0.162l0.163-0.654l0.327-0.896v-0.328l0.245-0.816l0.327-0.49l8.738-0.162l0.817,2.449v0.49l0.082,0.408l0.245,0.162l0.327-0.326
		l-4.9-18.945l-0.246-0.164H276.713L276.713,410.629L276.713,410.629z M276.713,411.363h0.816l3.593,14.537h-8.167l3.593-14.211
		L276.713,411.363L276.713,411.363z"/>
	<polygon fill-rule="evenodd" clip-rule="evenodd" fill="#D6504D" points="290.27,410.221 290.106,410.221 289.535,410.629 
		289.126,411.363 289.126,411.445 289.044,411.527 288.881,412.018 288.636,412.588 288.064,413.977 287.982,415.529 
		288.31,418.143 289.126,420.674 289.371,421.246 290.106,423.777 290.351,425.738 290.024,427.779 288.881,429.902 
		289.044,430.229 290.515,428.188 290.923,425.982 290.596,423.369 289.535,420.02 289.453,419.367 288.881,417.326 
		288.636,415.365 288.881,413.814 289.453,412.508 289.535,412.18 289.698,411.854 290.27,410.221 	"/>
	<path fill-rule="evenodd" clip-rule="evenodd" fill="#D6504D" d="M298.437,410.221h-0.164l-0.49,0.408l-0.327,0.734v0.082
		l-0.082,0.082l-0.245,0.49l-0.327,0.57l-0.408,1.389l-0.163,1.553l0.326,2.613l1.797,5.635l0.164,1.961l-0.327,2.041l-1.062,2.123
		l0.245,0.326c0.572-0.572,1.062-1.225,1.307-2.041c0.327-0.572,0.49-1.225,0.49-2.205l-0.327-2.613l-2.042-8.004l0.327-1.551
		l0.572-1.307l0.163-0.328l0.082-0.326l0.327-0.816L298.437,410.221L298.437,410.221z"/>
	<polygon fill-rule="evenodd" clip-rule="evenodd" fill="#D6504D" points="306.767,410.711 306.604,410.793 306.604,429.656 
		307.093,429.656 307.256,412.098 307.338,411.854 307.338,411.527 307.175,410.955 306.848,410.629 306.767,410.711 	"/>
	<path fill-rule="evenodd" clip-rule="evenodd" fill="#D6504D" d="M313.708,414.957l-0.245,0.49l-0.408,0.49l-0.572,2.041
		l-0.326,2.123l0.082,1.553l0.244,1.061c0.409,1.635,1.226,3.104,2.205,4.492c0.98,1.225,1.961,2.123,3.022,2.531l0.163-0.57
		l-0.49-0.49l-0.489-0.164l-2.777-3.512c-0.816-1.225-1.307-2.857-1.389-4.9c0.082-1.469,0.409-2.857,1.144-4.164l3.104-4.084
		l0.898-0.816c-0.816,0-1.634,0.408-2.287,1.225L313.708,414.957L313.708,414.957z"/>
	<path fill-rule="evenodd" clip-rule="evenodd" fill="#D6504D" d="M332.736,408.506h-2.939l-0.164,24.256l0.164,0.162h0.163
		l0.081-0.082h0.164l0.082-0.326v-8.738l1.225-0.246l1.633-0.08l4.247-1.063c1.225-0.57,2.041-1.959,2.613-4.084l0.082-0.57v-1.307
		l-0.245-2.369l-0.735-1.961c-0.734-1.633-1.715-2.531-2.858-2.939L332.736,408.506L332.736,408.506L332.736,408.506z
		 M330.694,409.486h1.144l4.084,0.57c1.225,0.328,2.205,1.471,3.021,3.43l0.326,1.797l0.082,2.613l-0.082,0.326v0.41
		c-0.653,1.633-1.552,2.613-2.613,3.104c-0.898,0.49-2.123,0.816-3.349,0.898h-0.897l-0.327-0.082h-1.634l-0.081-13.148
		L330.694,409.486L330.694,409.486z"/>
	<path fill-rule="evenodd" clip-rule="evenodd" fill="#D6504D" d="M350.132,410.793l-0.327-0.164h-0.979l-0.409-0.244l-5.063,19.518
		h0.082l0.162,0.162v0.082l0.49-1.795v-0.164l0.164-0.164l0.244-0.816l0.245-0.49l8.739-0.162l0.408,1.389l0.244,0.488l0.246,1.471
		l0.244,0.162l0.326-0.326L350.132,410.793L350.132,410.793L350.132,410.793z M348.906,411.363h0.735l3.675,14.537h-8.248
		l3.675-14.211L348.906,411.363L348.906,411.363z"/>
	<path fill-rule="evenodd" clip-rule="evenodd" fill="#D6504D" d="M360.667,410.057l-1.797,0.408l-0.164,18.947l0.246,0.326
		l0.163,0.164h0.081l0.082-0.164v-7.023l4.491-0.162l0.98,2.449h0.082v0.246l2.449,5.063h0.082v0.082h0.163v-0.164l-0.979-2.367
		l-0.082-0.246l-2.286-5.471l0.326-0.164l0.408-0.244l1.389-1.471c0.489-0.572,0.816-1.307,0.979-2.043l0.245-0.979v-0.898
		l0.164-0.408l-0.164-1.553l-0.245-1.143l-0.49-1.145l-0.734-0.816c-0.408-0.57-0.816-0.979-1.47-1.143l-0.98-0.244L360.667,410.057
		L360.667,410.057L360.667,410.057z M359.932,411.037l1.96-0.244h0.816c0.98,0,1.716,0.162,2.369,0.57
		c0.734,0.408,1.306,1.225,1.714,2.369l0.246,1.715l-0.082,1.961l-0.245,1.143c-0.49,1.389-1.225,2.205-2.123,2.613l-2.532,0.816
		l-2.449,0.082l-0.327-0.49l0.163-10.453h0.245L359.932,411.037L359.932,411.037z"/>
	<path fill-rule="evenodd" clip-rule="evenodd" fill="#D6504D" d="M384.188,411.363l-0.246-0.244l-2.939,4.574l-3.349,4.246
		c-0.734,0.898-1.552,1.633-2.45,2.041l-0.081-11.76h-0.572l0.082,19.926l0.082-0.162h0.326v0.08l0.082,0.082l0.163-7.104
		l1.062-0.98l0.735-0.49h0.081l0.082-0.164l5.962,8.33l0.816,0.082l-3.185-4.982l-0.164-0.162l-0.163-0.164l-2.613-3.838l1.47-1.797
		l0.164-0.164l2.449-3.348C382.799,414.385,383.533,412.996,384.188,411.363L384.188,411.363z"/>
</g>
</svg>
